<?xml version="1.0" encoding="UTF-8"?>
<svg xmlns="http://www.w3.org/2000/svg" version="1.1" viewBox="0 0 730.23 149.119">
  <title>Red Hat AI logo</title>
<metadata><?xpacket begin="﻿" id="W5M0MpCehiHzreSzNTczkc9d"?>
<x:xmpmeta xmlns:x="adobe:ns:meta/" x:xmptk="Adobe XMP Core 8.0-c001 1.000000, 0000/00/00-00:00:00        ">
   <rdf:RDF xmlns:rdf="http://www.w3.org/1999/02/22-rdf-syntax-ns#">
      <rdf:Description rdf:about=""
            xmlns:xmp="http://ns.adobe.com/xap/1.0/"
            xmlns:dc="http://purl.org/dc/elements/1.1/">
         <xmp:rhcc-effective-on>2024-09-24T18:43:53.505Z</xmp:rhcc-effective-on>
         <xmp:rhcc-rights-restricted>no</xmp:rhcc-rights-restricted>
         <xmp:brand-content-subtype>Product logos</xmp:brand-content-subtype>
         <xmp:rhcc-metadata-complete-moderator>pending</xmp:rhcc-metadata-complete-moderator>
         <xmp:rhcc-translation-id>TRA81b97213-689b-4842-be1c-6abc58b63a72</xmp:rhcc-translation-id>
         <xmp:brand-content-type>Logo</xmp:brand-content-type>
         <xmp:CreateDate>2024-09-24T18:43:53.505Z</xmp:CreateDate>
         <xmp:rhcc-derivative-id>DER81b97213-689b-4842-be1c-6abc58b63a72</xmp:rhcc-derivative-id>
         <xmp:rhcc-effective-on-set-on-upload>true</xmp:rhcc-effective-on-set-on-upload>
         <xmp:brand-color-mode>RGB</xmp:brand-color-mode>
         <xmp:rhcc-uploaded-by>krandrew@redhat.com</xmp:rhcc-uploaded-by>
         <xmp:brand-logo-version>One line</xmp:brand-logo-version>
         <xmp:brand-logo-color>Reverse</xmp:brand-logo-color>
         <xmp:rhcc-metadata-complete-uploader>pending</xmp:rhcc-metadata-complete-uploader>
         <xmp:rhcc-file-last-modified>2024-09-24T18:44:05.842Z</xmp:rhcc-file-last-modified>
         <xmp:rhcc-audience>rhcc-audience:internal</xmp:rhcc-audience>
         <xmp:rhcc-notify-portal-subscribers-on-change>yes</xmp:rhcc-notify-portal-subscribers-on-change>
         <dc:format>image/svg+xml</dc:format>
         <dc:modified>2024-09-24T18:46:05.467Z</dc:modified>
         <dc:title>
            <rdf:Alt>
               <rdf:li xml:lang="x-default">Red Hat AI logo</rdf:li>
            </rdf:Alt>
         </dc:title>
      </rdf:Description>
   </rdf:RDF>
</x:xmpmeta>
                                                                                                    
                                                                                                    
                                                                                                    
                                                                                                    
                                                                                                    
                                                                                                    
                                                                                                    
                                                                                                    
                                                                                                    
                                                                                                    
                                                                                                    
                                                                                                    
                                                                                                    
                                                                                                    
                                                                                                    
                                                                                                    
                                                                                                    
                                                                                                    
                                                                                                    
                                                                                                    
                           
<?xpacket end="w"?></metadata>
<defs>
    <style>
      .cls-1 {
        fill: #fff;
      }

      .cls-2 {
        fill: #e00;
      }
    </style>
  </defs>
  <!-- Generator: Adobe Illustrator 28.7.1, SVG Export Plug-In . SVG Version: 1.2.0 Build 142)  -->
  <g>
    <g id="Logos">
      <g>
        <path class="cls-1" d="M635.022,111.236l30.16-72.8h12.792l29.744,72.8h-11.855l-8.425-21.32h-32.552l-8.527,21.32h-11.337ZM658.527,80.868h25.376l-12.688-31.928-12.688,31.928Z"/>
        <path class="cls-1" d="M715.205,111.236V38.436h10.92v72.8h-10.92Z"/>
      </g>
      <g>
        <g>
          <path class="cls-2" d="M128.972,84.995c12.505,0,30.612-2.588,30.612-17.462,0-1.161-.032-2.29-.31-3.422l-7.449-32.362c-1.727-7.114-3.234-10.348-15.738-16.6-9.701-4.957-30.827-13.149-37.079-13.149-5.821,0-7.544,7.544-14.443,7.544-6.681,0-11.64-5.604-17.892-5.604-6.035,0-9.917,4.095-12.934,12.503,0,0-8.408,23.712-9.486,27.159-.216.648-.222,1.375-.222,1.942,0,9.216,36.295,39.45,84.941,39.45M161.523,73.569c1.726,8.191,1.726,9.054,1.726,10.131,0,14.013-15.739,21.772-36.431,21.772-46.782,0-87.739-27.376-87.739-45.485,0-2.804.647-5.39,1.509-7.329-16.815.862-38.588,3.88-38.588,23.066,0,31.473,74.589,70.276,133.655,70.276,45.272,0,56.695-20.478,56.695-36.645,0-12.721-10.993-27.162-30.826-35.786"/>
          <path d="M161.523,73.569c1.726,8.191,1.726,9.054,1.726,10.131,0,14.013-15.739,21.772-36.431,21.772-46.782,0-87.739-27.376-87.739-45.485,0-2.804.647-5.39,1.509-7.329l3.665-9.056c-.216.648-.222,1.375-.222,1.942,0,9.216,36.295,39.45,84.941,39.45,12.505,0,30.612-2.588,30.612-17.462,0-1.161-.032-2.29-.31-3.422l2.25,9.459Z"/>
        </g>
        <path class="cls-1" d="M581.238,94.305c0,11.884,7.153,17.668,20.192,17.668,3.156,0,8.624-.736,11.885-1.683v-13.777c-2.839.841-4.943,1.157-7.679,1.157-5.364,0-7.36-1.683-7.36-6.731v-21.139h15.564v-14.198h-15.564v-17.984l-17.039,3.681v14.303h-11.253v14.198h11.253v24.504ZM528.295,94.62c0-3.681,3.681-5.469,9.255-5.469,3.681,0,7.046.526,10.096,1.262v7.151c-3.155,1.788-6.836,2.629-10.622,2.629-5.469,0-8.729-2.103-8.729-5.574M533.493,112.183c5.995,0,10.832-1.262,15.355-4.312v3.365h16.827v-35.652c0-13.567-9.15-21.034-24.399-21.034-8.519,0-16.932,1.998-25.977,6.1l6.1,12.515c6.52-2.734,11.989-4.417,16.827-4.417,7.046,0,10.622,2.734,10.622,8.308v2.734c-3.996-1.052-8.203-1.578-12.62-1.578-14.303,0-22.927,5.995-22.927,16.722,0,9.781,7.782,17.248,20.192,17.248M441.05,111.237h18.089v-28.816h30.288v28.816h18.089V37.619h-18.089v28.29h-30.288v-28.29h-18.089v73.618ZM372.121,83.367c0-7.993,6.31-14.093,14.618-14.093,4.627,0,8.834,1.578,11.779,4.312v19.456c-3.05,2.945-7.046,4.417-11.779,4.417-8.203,0-14.618-6.1-14.618-14.093M398.729,111.237h16.827V33.938l-17.037,3.681v20.928c-4.207-2.419-9.044-3.681-14.198-3.681-16.196,0-28.921,12.515-28.921,28.501s12.515,28.606,28.395,28.606c5.469,0,10.622-1.683,14.934-4.838v4.102ZM321.537,68.538c5.364,0,9.886,3.471,11.674,8.834h-23.242c1.683-5.574,5.889-8.834,11.569-8.834M292.826,83.472c0,16.196,13.251,28.816,30.288,28.816,9.36,0,16.196-2.524,23.242-8.413l-11.253-9.991c-2.629,2.734-6.52,4.207-11.148,4.207-6.31,0-11.463-3.471-13.672-8.834h39.648v-4.207c0-17.668-11.884-30.394-28.08-30.394-16.301,0-29.026,12.62-29.026,28.816M263.485,53.079c5.995,0,9.36,3.786,9.36,8.308s-3.365,8.308-9.36,8.308h-17.879v-16.617h17.879ZM227.518,111.237h18.089v-26.818h13.777l13.882,26.818h20.192l-16.196-29.447c8.729-3.786,13.882-11.674,13.882-20.718,0-13.251-10.412-23.453-25.977-23.453h-37.65v73.618Z"/>
      </g>
    </g>
  </g>
</svg>