<?xml version="1.0" encoding="UTF-8" standalone="no"?>
<svg
   height="16"
   viewBox="0 0 16 16"
   version="1.1"
   width="16"
   data-view-component="true"
   id="svg1"
   xmlns="http://www.w3.org/2000/svg"
   xmlns:svg="http://www.w3.org/2000/svg">
  <defs
     id="defs1" />
  <path
     d="m 8,0.25 a 0.75,0.75 0 0 1 0.673,0.418 l 1.882,3.815 4.21,0.612 a 0.75,0.75 0 0 1 0.416,1.279 l -3.046,2.97 0.719,4.192 a 0.751,0.751 0 0 1 -1.088,0.791 L 8,12.347 4.234,14.327 A 0.75,0.75 0 0 1 3.146,13.537 L 3.866,9.343 0.818,6.374 A 0.75,0.75 0 0 1 1.234,5.094 L 5.444,4.483 7.327,0.668 A 0.75,0.75 0 0 1 8,0.25 Z M 8,2.695 6.615,5.5 A 0.75,0.75 0 0 1 6.051,5.91 L 2.954,6.36 5.194,8.544 A 0.75,0.75 0 0 1 5.41,9.208 l -0.528,3.084 2.769,-1.456 a 0.75,0.75 0 0 1 0.698,0 l 2.77,1.456 -0.53,-3.084 A 0.75,0.75 0 0 1 10.805,8.544 L 13.045,6.361 9.949,5.911 A 0.75,0.75 0 0 1 9.385,5.501 L 8,2.694 Z"
     id="path1"
     style="fill:#ffffff;stroke-width:1.00157;stroke-dasharray:none" />
</svg>
