<?xml version="1.0" encoding="UTF-8"?><svg xmlns="http://www.w3.org/2000/svg" viewBox="0 0 38 38"><title>Red Hat AI icon</title>
<desc>artificial intelligence, Red Hat Enterprise Linux AI, Red Hat OpenShift AI, RHEL AI, machine learning</desc>
<metadata><?xpacket begin="﻿" id="W5M0MpCehiHzreSzNTczkc9d"?>
<x:xmpmeta xmlns:x="adobe:ns:meta/" x:xmptk="Adobe XMP Core 8.0-c001 1.000000, 0000/00/00-00:00:00        ">
   <rdf:RDF xmlns:rdf="http://www.w3.org/1999/02/22-rdf-syntax-ns#">
      <rdf:Description rdf:about=""
            xmlns:tiff="http://ns.adobe.com/tiff/1.0/"
            xmlns:dc="http://purl.org/dc/elements/1.1/"
            xmlns:xmp="http://ns.adobe.com/xap/1.0/">
         <tiff:ImageLength>38</tiff:ImageLength>
         <tiff:ImageWidth>38</tiff:ImageWidth>
         <dc:modified>2025-03-12T19:43:40.963Z</dc:modified>
         <dc:format>image/svg+xml</dc:format>
         <dc:title>
            <rdf:Alt>
               <rdf:li xml:lang="x-default">Red Hat AI icon</rdf:li>
            </rdf:Alt>
         </dc:title>
         <dc:description>
            <rdf:Alt>
               <rdf:li xml:lang="x-default">artificial intelligence, Red Hat Enterprise Linux AI, Red Hat OpenShift AI, RHEL AI, machine learning</rdf:li>
            </rdf:Alt>
         </dc:description>
         <xmp:brand-content-type>Icon</xmp:brand-content-type>
         <xmp:rhcc-rights-restricted>no</xmp:rhcc-rights-restricted>
         <xmp:rhcc-file-last-modified>2025-03-12T19:39:59.817Z</xmp:rhcc-file-last-modified>
         <xmp:brand-content-subtype>Technology icon</xmp:brand-content-subtype>
         <xmp:brand-logo-color>Standard</xmp:brand-logo-color>
      </rdf:Description>
   </rdf:RDF>
</x:xmpmeta>
                                                                                                    
                                                                                                    
                                                                                                    
                                                                                                    
                                                                                                    
                                                                                                    
                                                                                                    
                                                                                                    
                                                                                                    
                                                                                                    
                                                                                                    
                                                                                                    
                                                                                                    
                                                                                                    
                                                                                                    
                                                                                                    
                                                       
<?xpacket end="w"?></metadata>
<defs><style>.uuid-d4ca69c2-2716-4216-b5d9-c608612b001a{fill:#4d4d4d;}.uuid-246a6908-db71-413b-883d-ad4d5b6914a7{fill:#fff;}.uuid-293636b2-d16c-4b3c-b3ee-76a7a851464a{fill:#e00;}</style></defs><g id="uuid-d0b370ff-968c-41c8-b8e2-761ffd1df8c1"><rect x="1" y="1" width="36" height="36" rx="9" ry="9"/><path class="uuid-d4ca69c2-2716-4216-b5d9-c608612b001a" d="M28,2.25c4.2734,0,7.75,3.4766,7.75,7.75v18c0,4.2734-3.4766,7.75-7.75,7.75H10c-4.2734,0-7.75-3.4766-7.75-7.75V10c0-4.2734,3.4766-7.75,7.75-7.75h18M28,1H10C5.0294,1,1,5.0294,1,10v18c0,4.9706,4.0294,9,9,9h18c4.9706,0,9-4.0294,9-9V10c0-4.9706-4.0294-9-9-9h0Z"/></g><g id="uuid-b55214ed-1f54-4b54-80ae-4d5ad877ea43"><path class="uuid-246a6908-db71-413b-883d-ad4d5b6914a7" d="M18.999,25.6772h-.0034c-.3462-.0024-.6348-.2661-.6724-.6128-.2261-2.0425-1.1992-3.9277-2.7397-5.3062-.2568-.2305-.2788-.6255-.0488-.8828.2295-.2568.624-.2783.8828-.0488,1.1616,1.04,2.043,2.3315,2.5845,3.7607.9795-2.5576,3.0322-4.6089,5.5938-5.5874-2.5635-.98-4.6172-3.0337-5.5957-5.5962-1.2622,3.3032-4.3091,5.7607-7.9287,6.1621-.335.0449-.6519-.2085-.6899-.5522-.0381-.3433.209-.6519.5522-.6899,3.8545-.4277,6.9624-3.5356,7.3901-7.3901.0347-.3149.3545-.6084.6719-.6108.2974.0024.6392.2578.6802.6045.4277,3.8608,3.5361,6.9688,7.3906,7.3965.3164.0352.6104.3579.6104.6763,0,.3486-.2637.6392-.6133.6768-3.8516.4272-6.96,3.5352-7.3867,7.3896-.0352.3169-.3594.6108-.6777.6108ZM26.9258,17.5659c.002,0,.0029,0,.0049.0005-.002-.0005-.0029-.0005-.0049-.0005ZM19.5664,9.0693c0,.001,0,.0024-.001.0039.001-.0015.001-.0029.001-.0039Z"/><path class="uuid-293636b2-d16c-4b3c-b3ee-76a7a851464a" d="M19,29.625c-.1045,0-.209-.0264-.3037-.0786l-9.8999-5.5c-.1982-.1104-.3213-.3193-.3213-.5464s.123-.436.3213-.5464l3.8999-2.1665c.3018-.1675.6826-.0586.8501.2427.1675.3018.0591.6826-.2427.8501l-2.9165,1.6201,8.6128,4.7852,8.6133-4.7852-2.917-1.6201c-.3018-.1675-.4102-.5483-.2422-.8501.166-.3013.5459-.4102.8496-.2427l3.9004,2.1665c.1982.1104.3213.3193.3213.5464s-.123.436-.3213.5464l-9.9004,5.5c-.0947.0522-.1992.0786-.3037.0786Z"/></g></svg>